<?xml version="1.0" standalone="no"?>
<!DOCTYPE svg PUBLIC "-//W3C//DTD SVG 20010904//EN"
 "http://www.w3.org/TR/2001/REC-SVG-20010904/DTD/svg10.dtd">
<svg version="1.0" xmlns="http://www.w3.org/2000/svg"
 width="247.000000pt" height="247.000000pt" viewBox="0 0 247.000000 247.000000"
 preserveAspectRatio="xMidYMid meet">
<metadata>
Created by potrace 1.11, written by Peter Selinger 2001-2013
</metadata>
<g transform="translate(0.000000,247.000000) scale(0.100000,-0.100000)"
fill="#000000" stroke="none">
<path d="M1065 2438 c-67 -13 -154 -39 -185 -55 -14 -7 -31 -13 -37 -13 -7 0
-13 -4 -13 -9 0 -5 -10 -12 -22 -15 -26 -6 -66 -37 -106 -79 -15 -16 -48 -50
-74 -76 -44 -46 -60 -72 -96 -171 -23 -62 -25 -402 -2 -444 13 -24 13 -29 0
-37 -43 -25 -44 -27 -42 -94 1 -36 6 -74 11 -83 5 -9 12 -42 16 -72 4 -30 11
-61 15 -70 4 -8 13 -27 20 -42 8 -17 24 -29 41 -33 16 -4 29 -11 29 -16 0 -12
1227 -12 1234 0 3 4 19 11 36 14 21 5 31 14 36 32 3 14 10 25 14 25 7 0 19 53
39 177 5 28 12 65 16 82 5 26 2 36 -23 61 -16 16 -28 30 -27 32 2 2 11 62 20
135 15 121 15 139 1 235 -9 56 -20 112 -25 123 -52 114 -72 147 -131 205 -36
36 -83 74 -105 85 -22 11 -42 23 -45 26 -3 4 -16 9 -30 13 -14 4 -34 11 -45
16 -125 52 -377 75 -520 48z m607 -924 c34 -34 45 -60 47 -106 1 -33 -52 -67
-118 -73 -26 -3 -37 -1 -26 3 75 27 107 108 68 170 -10 15 -25 32 -33 39 -13
10 -11 11 7 6 12 -3 37 -20 55 -39z m-827 0 c-47 -70 -21 -147 60 -176 11 -4
-1 -6 -27 -3 -70 7 -112 34 -116 75 -4 40 12 75 52 113 43 40 61 35 31 -9z
m197 8 c14 -16 33 -54 43 -86 18 -56 18 -58 -2 -77 -14 -14 -37 -21 -79 -24
-32 -2 -49 -2 -36 1 12 3 22 10 22 15 0 5 6 9 13 9 15 0 47 61 47 91 0 23 -28
81 -44 91 -8 5 -8 8 0 8 6 0 22 -13 36 -28z m414 -5 c-51 -67 -23 -150 59
-179 11 -4 -5 -6 -37 -4 -80 4 -92 16 -85 90 3 33 10 62 16 64 6 2 11 8 11 14
0 11 40 47 53 48 4 0 -3 -15 -17 -33z m-536 -7 c0 -13 -7 -20 -20 -20 -19 0
-27 20 -13 33 13 14 33 6 33 -13z m610 0 c0 -11 -6 -20 -13 -20 -19 0 -27 10
-20 26 8 21 33 17 33 -6z"/>
<path d="M327 1063 c-10 -22 4 -404 19 -525 6 -46 4 -49 -45 -105 -47 -53
-111 -163 -111 -191 0 -7 -4 -20 -9 -30 -13 -23 -38 -118 -46 -169 l-7 -43
1110 0 1110 0 -9 38 c-20 79 -43 157 -49 167 -4 6 -15 33 -25 60 -20 55 -69
136 -105 174 l-23 24 12 171 c23 309 25 409 8 431 -15 20 -27 20 -918 20
l-902 0 -10 -22z m976 -409 c3 -4 -1 -17 -9 -29 -14 -22 -14 -23 15 -30 33 -7
38 -23 19 -54 -11 -19 -8 -32 14 -64 11 -14 10 -22 -2 -45 -14 -25 -21 -27
-84 -30 -74 -3 -87 3 -111 51 -37 74 -8 142 60 140 26 -1 35 3 35 15 0 31 45
64 63 46z"/>
</g>
</svg>
